<svg width="32" height="32" viewBox="0 0 32 32" fill="none" xmlns="http://www.w3.org/2000/svg">
<path d="M9.33331 29.3334C8.59998 29.3334 7.9722 29.0723 7.44998 28.5501C6.92776 28.0279 6.66665 27.4001 6.66665 26.6667C6.66665 25.9334 6.92776 25.3056 7.44998 24.7834C7.9722 24.2612 8.59998 24.0001 9.33331 24.0001C10.0666 24.0001 10.6944 24.2612 11.2166 24.7834C11.7389 25.3056 12 25.9334 12 26.6667C12 27.4001 11.7389 28.0279 11.2166 28.5501C10.6944 29.0723 10.0666 29.3334 9.33331 29.3334ZM22.6666 29.3334C21.9333 29.3334 21.3055 29.0723 20.7833 28.5501C20.2611 28.0279 20 27.4001 20 26.6667C20 25.9334 20.2611 25.3056 20.7833 24.7834C21.3055 24.2612 21.9333 24.0001 22.6666 24.0001C23.4 24.0001 24.0278 24.2612 24.55 24.7834C25.0722 25.3056 25.3333 25.9334 25.3333 26.6667C25.3333 27.4001 25.0722 28.0279 24.55 28.5501C24.0278 29.0723 23.4 29.3334 22.6666 29.3334ZM8.19998 8.00008L11.4 14.6667H20.7333L24.4 8.00008H8.19998ZM6.93331 5.33341H26.6C27.1111 5.33341 27.5 5.56119 27.7666 6.01675C28.0333 6.4723 28.0444 6.93341 27.8 7.40008L23.0666 15.9334C22.8222 16.3779 22.4944 16.7223 22.0833 16.9667C21.6722 17.2112 21.2222 17.3334 20.7333 17.3334H10.8L9.33331 20.0001H25.3333V22.6667H9.33331C8.33331 22.6667 7.57776 22.2279 7.06665 21.3501C6.55554 20.4723 6.53331 19.6001 6.99998 18.7334L8.79998 15.4667L3.99998 5.33341H1.33331V2.66675H5.66665L6.93331 5.33341Z" fill="#EDEDED"/>
<circle cx="24" cy="24" r="8" fill="#6528D3"/>
<path d="M25.0898 18.7727V27.3333H23.6777V20.4485L21.5859 21.1575V19.9915L24.9199 18.7727H25.0898Z" fill="white"/>
</svg>
